<?xml version="1.0" standalone="no"?>
<!DOCTYPE svg PUBLIC "-//W3C//DTD SVG 20010904//EN"
 "http://www.w3.org/TR/2001/REC-SVG-20010904/DTD/svg10.dtd">
<svg version="1.0" xmlns="http://www.w3.org/2000/svg"
 width="548.000000pt" height="459.000000pt" viewBox="0 0 548.000000 459.000000"
 preserveAspectRatio="xMidYMid meet">

<g transform="translate(0.000000,459.000000) scale(0.100000,-0.100000)"
fill="#000000" stroke="none">
<path d="M0 2295 l0 -2295 2740 0 2740 0 0 2295 0 2295 -2740 0 -2740 0 0
-2295z m3913 1520 l1123 -700 -1128 -3 c-620 -1 -1637 -1 -2260 0 l-1132 3
1124 702 c619 386 1131 701 1138 700 7 -1 518 -317 1135 -702z m-2326 -1416
c593 -370 1092 -678 1110 -686 42 -17 115 -17 159 2 19 8 523 319 1120 691
597 372 1088 673 1092 669 11 -11 14 -2199 3 -2278 -20 -141 -106 -261 -231
-321 l-65 -31 -2000 0 -2000 0 -66 32 c-80 40 -159 120 -197 200 l-27 58 -3
1174 c-2 1042 -1 1173 13 1167 8 -3 500 -308 1092 -677z"/>
</g>
</svg>
