<?xml version="1.0" standalone="no"?>
<!DOCTYPE svg PUBLIC "-//W3C//DTD SVG 20010904//EN"
 "http://www.w3.org/TR/2001/REC-SVG-20010904/DTD/svg10.dtd">
<svg version="1.0" xmlns="http://www.w3.org/2000/svg"
 width="792.000000pt" height="801.000000pt" viewBox="0 0 792.000000 801.000000"
 preserveAspectRatio="xMidYMid meet">

<g transform="translate(0.000000,801.000000) scale(0.100000,-0.100000)"
fill="#000000" stroke="none">
<path d="M0 4005 l0 -4005 3960 0 3960 0 0 4005 0 4005 -3960 0 -3960 0 0
-4005z m1860 3685 c111 -56 152 -111 322 -436 75 -142 258 -490 406 -772 149
-282 279 -534 289 -560 13 -35 18 -74 18 -153 0 -102 -1 -107 -39 -185 -35
-72 -59 -99 -257 -299 -273 -276 -265 -258 -209 -428 61 -187 191 -440 319
-622 193 -273 366 -461 791 -862 353 -331 503 -458 675 -568 231 -147 565
-254 650 -207 11 6 128 119 259 251 204 205 248 244 302 270 93 44 167 63 248
63 126 -1 113 6 821 -414 61 -36 247 -146 415 -245 168 -99 343 -203 390 -231
100 -59 158 -116 197 -192 25 -49 28 -66 28 -150 0 -158 25 -127 -592 -741
-296 -294 -558 -551 -583 -571 -55 -44 -172 -101 -255 -124 -79 -22 -324 -27
-470 -9 -584 71 -1168 297 -1880 728 -196 119 -387 256 -650 466 -972 778
-1704 1601 -2200 2475 -214 378 -430 900 -520 1256 -59 237 -70 322 -69 555 1
237 12 301 80 444 35 73 57 96 593 635 306 307 579 573 607 591 104 68 223 81
314 35z"/>
</g>
</svg>
